<svg width="24" height="24" viewBox="0 0 24 24" fill="none" xmlns="http://www.w3.org/2000/svg">
<g clip-path="url(#clip0_1_2820)">
<path d="M8.00001 6.14239L8.00001 4.4709C8.00001 3.30611 8.00001 2.72371 8.34942 2.36186C8.69884 2 9.26122 2 10.386 2L13.614 2C14.7388 2 15.3012 2 15.6506 2.36186C16 2.72371 16 3.30611 16 4.4709V6.14239" stroke="#252525" stroke-width="1.5"/>
<path d="M19.1085 15.6335C18.8152 18.2884 18.6686 19.6158 17.9192 20.5322C17.6572 20.8526 17.347 21.1304 16.9997 21.3557C16.0066 22 14.6711 22 12.0001 22C9.32905 22 7.99354 22 7.0004 21.3557C6.65314 21.1304 6.34295 20.8526 6.08091 20.5322C5.3315 19.6158 5.18489 18.2883 4.89166 15.6335L3.76476 5.43042L20.2354 5.43042L19.1085 15.6335Z" fill="#252525"/>
<path d="M3 6.12201H21" stroke="#252525" stroke-width="1.5" stroke-linecap="round"/>
</g>
<defs>
<clipPath id="clip0_1_2820">
<rect width="24" height="24" fill="white"/>
</clipPath>
</defs>
</svg>
